<svg xmlns="http://www.w3.org/2000/svg" viewBox="0 0 754.4 299.92"><defs><style>.cls-1{fill:#282828;}.cls-2{fill:#ed1c24;fill-rule:evenodd;}</style></defs><title>Asset 1</title><g id="Layer_2" data-name="Layer 2"><g id="Layer_1-2" data-name="Layer 1"><path class="cls-1" d="M568.35,34.09a36.48,36.48,0,0,1,14.57-2.8,37.49,37.49,0,0,1,15,3,38.47,38.47,0,0,1,20.49,20.42,37,37,0,0,1,3,14.9v42a12.93,12.93,0,0,1-12.84,12.84,12.07,12.07,0,0,1-9-3.79,12.5,12.5,0,0,1-3.7-9.06v-42A12.24,12.24,0,0,0,592,60.6a13,13,0,0,0-18.35,0,12.36,12.36,0,0,0-3.79,9.06v42a13,13,0,0,1-1,5,12.51,12.51,0,0,1-2.72,4.12,12.75,12.75,0,0,1-4,2.72,12.89,12.89,0,0,1-17.77-11.86v-42a12.37,12.37,0,0,0-3.79-9.06,12.55,12.55,0,0,0-9.22-3.79,12.93,12.93,0,0,0-12.84,12.84v42a12.93,12.93,0,0,1-12.84,12.84,12.07,12.07,0,0,1-9-3.79,12.5,12.5,0,0,1-3.7-9.06v-42a36.93,36.93,0,0,1,3-14.9A38.69,38.69,0,0,1,516.5,34.33a36.9,36.9,0,0,1,14.89-3A36.33,36.33,0,0,1,546,34.09a41.46,41.46,0,0,1,11.19,7.08A38.53,38.53,0,0,1,568.35,34.09Z"/><path class="cls-1" d="M637.22,4a13.19,13.19,0,0,1,9.71-4,13.47,13.47,0,0,1,9.79,4,13.08,13.08,0,0,1,4,9.72,13.34,13.34,0,0,1-4,9.8,13.33,13.33,0,0,1-9.79,4,13,13,0,0,1-9.71-4,13.48,13.48,0,0,1-3.95-9.8A13.21,13.21,0,0,1,637.22,4Zm22.55,107.7A12.84,12.84,0,0,1,642,123.51a12.72,12.72,0,0,1-4-2.72,12.51,12.51,0,0,1-2.72-4.12,13,13,0,0,1-1-5V45a12.65,12.65,0,0,1,12.67-12.68,13,13,0,0,1,5,1A12.53,12.53,0,0,1,656.07,36a12.76,12.76,0,0,1,2.72,4,12.43,12.43,0,0,1,1,4.94Z"/><path class="cls-1" d="M674.91,53.35a13.1,13.1,0,0,1-3.13-8.23,12.43,12.43,0,0,1,1.32-5.93,11.74,11.74,0,0,1,3.29-4,14.73,14.73,0,0,1,4.2-2.22,12.86,12.86,0,0,1,4-.74,12.63,12.63,0,0,1,9.71,4.61l17.61,20.58,17.61-20.58a11.53,11.53,0,0,1,4.36-3.46,12.23,12.23,0,0,1,9.38-.41,14.73,14.73,0,0,1,4.2,2.22,11.77,11.77,0,0,1,3.29,4,12.46,12.46,0,0,1,1.32,5.93A13.12,13.12,0,0,1,749,53.35L728.73,77.07l22.55,26.51a13.12,13.12,0,0,1,3.13,8.23,11,11,0,0,1-1,4.53,14.1,14.1,0,0,1-2.72,4,14.41,14.41,0,0,1-4,3,11.24,11.24,0,0,1-5.1,1.15,13.65,13.65,0,0,1-5.35-1.07,10.77,10.77,0,0,1-4.36-3.38L711.94,96.83,692,120a10.81,10.81,0,0,1-4.36,3.38,13.66,13.66,0,0,1-5.35,1.07,12.12,12.12,0,0,1-5.35-1.15,13,13,0,0,1-4-3,13.51,13.51,0,0,1-2.55-4,11.89,11.89,0,0,1-.91-4.53,12.24,12.24,0,0,1,3-8.23l22.71-26.51Z"/><path class="cls-2" d="M465,269.75q-29.87,29.79-71.76,29.79-42.27,0-72-29.79t-29.68-71.9q0-42.1,29.68-71.9t72-29.79q41.89,0,71.76,29.79t29.87,71.9Q494.82,240,465,269.75Zm-78,3a16.72,16.72,0,0,0,9.7.83c.6-.12.94-.36,1-1,.08-.79.21-1.58.33-2.44-2.6.12-5.12.31-7.63.32s-5-.17-7.65-.27A14.46,14.46,0,0,0,387,272.8Zm-51.13-43.54a3.18,3.18,0,1,0-3.17-3.21A3.14,3.14,0,0,0,335.82,229.25Zm-7-29.17a8.74,8.74,0,1,0,8.95,8.75A8.78,8.78,0,0,0,328.81,200.08Zm20-23.09a12.73,12.73,0,1,0,13,12.68A12.85,12.85,0,0,0,348.83,177Zm80.33,35.11a37.89,37.89,0,0,0-21.23-12.35,38.44,38.44,0,0,0-10.27-.69,1.09,1.09,0,0,0-1,.66c-.73,1.46-1.49,2.91-2.23,4.36l-.13,0,1.6-4.81a38.38,38.38,0,0,0-21.63,9.89c19-4.33,36.35-1.26,52.49,9.54.93-2,1.85-3.91,2.73-5.87C429.51,212.63,429.32,212.29,429.16,212.11Zm33.05.83a1,1,0,0,0-.92-.89A28.6,28.6,0,0,0,432,222.47l-.53.68c-17.21-13.72-36.54-18.38-58-12.81-16.35,4.25-28.7,14-37.61,28.18,1.2.19,2.28.3,3.34.53a11.08,11.08,0,0,1,7.12,4.41,2,2,0,0,1,.34.57,2.23,2.23,0,0,1,0,.65c-.19-.11-.47-.16-.57-.33-1.81-3-4.72-4.23-8-4.81-.66-.12-1.33-.15-2.2-.25a62.63,62.63,0,0,0,22,21.8,63.34,63.34,0,0,0,39.05,8.35l-2.25-2.63.18-.17c.13.16.25.32.38.47a19.16,19.16,0,0,0,14.77,6,1.55,1.55,0,0,0,1.7-1.18,18.57,18.57,0,0,0,0-12.87,2,2,0,0,1-.15-.62,17.46,17.46,0,0,1,2.13,6.9,63,63,0,0,0,17.63-10.58c1.31,1.43,2.49,2.93,3.89,4.2,7.44,6.71,16.14,9,26,6.94a1.17,1.17,0,0,0,1.05-1.06c2-9.64-.25-18.13-7-25.44l-.41-.44c.57-.64,1.15-1.24,1.68-1.89A27.29,27.29,0,0,0,462.22,212.94ZM379,215.43c14.27,13,13.17,35.49.09,47C389.87,246.89,389.86,231.06,379,215.43ZM363.46,241a4.5,4.5,0,1,1,4.5-4.47A4.51,4.51,0,0,1,363.46,241Zm-24-52.47c-.57-2.61,1.11-6,3.79-7.7,2.22-1.38,5.75-1.78,7.07-.79C344.83,180.05,341.61,182.57,339.5,188.52ZM325.17,203.6a8,8,0,0,0-2.7,4.28,5.84,5.84,0,0,1,7.45-6A8.42,8.42,0,0,0,325.17,203.6Zm-34.93-124a7.26,7.26,0,0,1,1.84,4.67A4.79,4.79,0,0,1,291,87.36,5.41,5.41,0,0,1,287.17,89a28.91,28.91,0,0,1-4.59,11.52c-6.59,9.55-19.42,14.93-32.51,14.93a44,44,0,0,1-19.44-4.38c-17.31-8.56-21.94-26.75-22.94-31.39a46.76,46.76,0,0,1-1-9.84,50,50,0,0,1,3.28-17.65,8.92,8.92,0,0,1-2.06-4.55,8.09,8.09,0,0,1-.07-1.06,9.42,9.42,0,0,1,1.94-5.51A12.56,12.56,0,0,1,211.61,39L209,35.13l-.24-.35.39-.16,5.63-2.36c.7-6.53,4.63-11.62,9.61-12.63a12.11,12.11,0,0,1,2.24-.2,9,9,0,0,1,7.1,2.93,8.42,8.42,0,0,1,1.84,5,6.51,6.51,0,0,1,3,2.49,7.09,7.09,0,0,1,1,3.46,5.29,5.29,0,0,1-.79,2.82,5.76,5.76,0,0,1-3.07,2.39,7.17,7.17,0,0,1-1.73.37,24.6,24.6,0,0,0-1.06,7,16.87,16.87,0,0,0,2.34,8.87c3.49,5.73,10.81,9.06,18.21,9.06h0a21.52,21.52,0,0,0,13.7-4.63,21.35,21.35,0,0,0,7.43-16.66,25.53,25.53,0,0,0-1.37-8.19l-.24-.71.7.27c3.93,1.53,16,6.81,21.36,19.33A39.91,39.91,0,0,1,298,67.74c0,4.22-1,8.12-3.9,10.28A8.66,8.66,0,0,1,290.24,79.57Zm-72-44.8v.11A2.72,2.72,0,0,0,221,37.47h.12a2.71,2.71,0,0,0,2.62-2.69v-.12A2.72,2.72,0,0,0,221,32.07h-.12A2.71,2.71,0,0,0,218.27,34.77ZM256.36,103l-.07-.34a23.53,23.53,0,0,0,11-5.4,31.44,31.44,0,0,1-13.11,3,29,29,0,0,1-5.47-.52,29.64,29.64,0,0,1-16.34-9.36,35.68,35.68,0,0,1-4.25-5.69c1.25,4,4.42,11.09,12,15.27A24.61,24.61,0,0,0,252,103a22.77,22.77,0,0,0,4.3-.41ZM226.6,20.13a11.38,11.38,0,0,0-2.1.18,11.38,11.38,0,0,1,2.1-.18Zm-63.47,259c-21-13.92-47.52-26.59-53.57-36-7.83-12.15,6.53-14.75,11.31-18.22s7.77-10.64,10.38-13.24,7.34-6.75,15.18-14.56c4-4-1.56-21-4.54-21.19-10-.63-13.64.37-24.95-.12,1.82-3.64,3.91-10.84,3.91-15.2a35.36,35.36,0,0,0-5.05-18.88,60.31,60.31,0,0,1,.08,9.32c-1.09,11-6.86,19.93-15.5,24.14L86.08,177.7H86c-16.35-1.61-25.67-18.93-24.05-35.23a29.65,29.65,0,0,1,1.36-6.38c-4.26,4.08-8.18,12.32-8.18,18.09,0,10.51,3.83,20.29,10.56,27l-4.83.83a45.26,45.26,0,0,0-13.05,3c-6.09,2.6-15.67,16.48-14.36,17.35S51.25,205,56,203.72a41.66,41.66,0,0,0,9.14-3.9s-13.06,21.7-27.42,36a62.08,62.08,0,0,0-15.95,25.5Q0,234.29,0,198.23V45.78a24.94,24.94,0,0,1,7.33-18,24.2,24.2,0,0,1,18-7.52A24.29,24.29,0,0,1,43.3,27.74a24.78,24.78,0,0,1,7.42,18v51c17.22-1.3,45.74-.22,50.91-.22q41.89,0,71.76,29.79t29.87,71.9q0,42.11-29.87,71.9A112.07,112.07,0,0,1,163.13,279.18Zm79.76-147.95c2,.17,4,.28,6,.28,1.3,0,2.6,0,3.88-.11a24.3,24.3,0,0,1,12.56,7,24.56,24.56,0,0,1,7.42,17.86V274.35a24.69,24.69,0,0,1-7.42,18.14,25.5,25.5,0,0,1-36,0,24.84,24.84,0,0,1-7.33-18.14V156.22a24.72,24.72,0,0,1,7.33-17.86A23.91,23.91,0,0,1,242.88,131.23Z"/></g></g></svg>