<svg xmlns="http://www.w3.org/2000/svg" viewBox="0 0 387.03 153.9"><defs><style>.cls-1{fill:#282828;}.cls-2{fill:#fff;}</style></defs><title>biomix_logo_w</title><g id="Layer_2" data-name="Layer 2"><g id="Layer_1-2" data-name="Layer 1"><path class="cls-1" d="M291.64,17.5a18.41,18.41,0,0,1,7.49-1.44,19.45,19.45,0,0,1,7.7,1.54,20.59,20.59,0,0,1,6.31,4.21,19.49,19.49,0,0,1,4.21,6.26,19.2,19.2,0,0,1,1.54,7.65V57.27a6.52,6.52,0,0,1-2,4.67,6.54,6.54,0,0,1-11.19-4.67V35.72a6.37,6.37,0,0,0-2-4.67,6.63,6.63,0,0,0-9.39,0,6.35,6.35,0,0,0-2,4.67V57.27a6.2,6.2,0,0,1-.51,2.57,6.82,6.82,0,0,1-1.39,2.1,6.05,6.05,0,0,1-2.05,1.39,6,6,0,0,1-2.51.51,6.52,6.52,0,0,1-4.67-2,6.35,6.35,0,0,1-2-4.67V35.67A6.64,6.64,0,0,0,268,31a6.35,6.35,0,0,0-2,4.67V57.22a6.52,6.52,0,0,1-2,4.67,6.54,6.54,0,0,1-11.19-4.67V35.67A19.2,19.2,0,0,1,254.43,28a20.36,20.36,0,0,1,4.21-6.26,19.49,19.49,0,0,1,6.26-4.21A19.2,19.2,0,0,1,272.55,16,18.07,18.07,0,0,1,280,17.45a21.11,21.11,0,0,1,5.75,3.64A22.91,22.91,0,0,1,291.64,17.5Z"/><path class="cls-1" d="M327,2.05a7.12,7.12,0,0,1,10,0,6.66,6.66,0,0,1,2.05,5,6.85,6.85,0,0,1-2.05,5,6.85,6.85,0,0,1-5,2.05,6.66,6.66,0,0,1-5-2.05,7.06,7.06,0,0,1-2.05-5A6.58,6.58,0,0,1,327,2.05Zm11.55,55.27a6.52,6.52,0,0,1-2,4.67,6.35,6.35,0,0,1-4.67,2,5.8,5.8,0,0,1-2.51-.51A7.23,7.23,0,0,1,327.35,62a5.79,5.79,0,0,1-1.39-2.1,6.37,6.37,0,0,1-.51-2.57V23.09A6.48,6.48,0,0,1,332,16.58a6.2,6.2,0,0,1,2.57.51,6.82,6.82,0,0,1,2.1,1.39A6.05,6.05,0,0,1,338,20.53a6,6,0,0,1,.51,2.51V57.32Z"/><path class="cls-1" d="M346.29,27.4a6.64,6.64,0,0,1-1.59-4.21,6.14,6.14,0,0,1,.67-3,6.72,6.72,0,0,1,1.69-2.05A7.23,7.23,0,0,1,349.21,17a6.33,6.33,0,0,1,7,2l9,10.57,9-10.57a6.37,6.37,0,0,1,5-2.41,6.19,6.19,0,0,1,2.05.36,7.23,7.23,0,0,1,2.16,1.13,6.15,6.15,0,0,1,2.36,5.08,6.54,6.54,0,0,1-1.59,4.21L373.9,39.51l11.55,13.6A6.64,6.64,0,0,1,387,57.32a5.38,5.38,0,0,1-.51,2.31,8,8,0,0,1-1.39,2.05,8.6,8.6,0,0,1-2.05,1.54,5.47,5.47,0,0,1-2.62.62,7,7,0,0,1-2.72-.56,5.29,5.29,0,0,1-2.26-1.74L365.28,49.62,355.06,61.53a5.72,5.72,0,0,1-2.26,1.74,7.17,7.17,0,0,1-2.72.56,5.75,5.75,0,0,1-2.72-.62,7,7,0,0,1-2.05-1.54A8.8,8.8,0,0,1,344,59.63a6.34,6.34,0,0,1,1.08-6.52l11.65-13.6Z"/><path class="cls-2" d="M238.57,138.45a52.16,52.16,0,0,1-73.79,0,50.37,50.37,0,0,1-15.24-36.9,50.37,50.37,0,0,1,15.24-36.9,52.16,52.16,0,0,1,73.79,0,50.26,50.26,0,0,1,15.34,36.9A50.34,50.34,0,0,1,238.57,138.45Zm-40,1.54a8.26,8.26,0,0,0,5,.41.55.55,0,0,0,.51-.51l.15-1.23c-1.33.05-2.62.15-3.9.15s-2.57-.1-3.9-.15A6.31,6.31,0,0,0,198.55,140Zm-26.22-22.32a1.64,1.64,0,1,0-1.59-1.64A1.58,1.58,0,0,0,172.32,117.67Zm-3.64-15a4.49,4.49,0,1,0,4.62,4.52A4.55,4.55,0,0,0,168.68,102.69ZM179,90.83a6.52,6.52,0,1,0,0,13,6.52,6.52,0,1,0,0-13Zm41.21,18a19.31,19.31,0,0,0-10.88-6.31,20.24,20.24,0,0,0-5.29-.36.49.49,0,0,0-.51.36c-.36.77-.77,1.49-1.13,2.26h-.05c.26-.82.51-1.59.82-2.46a19.26,19.26,0,0,0-11.08,5.08A33.18,33.18,0,0,1,219,112.28c.46-1,1-2,1.39-3A1,1,0,0,0,220.2,108.84Zm17,.46a.54.54,0,0,0-.46-.46,14.68,14.68,0,0,0-15,5.34,1.56,1.56,0,0,0-.26.36c-8.83-7-18.73-9.44-29.76-6.57a31.76,31.76,0,0,0-19.3,14.47c.62.1,1.18.15,1.69.26a5.53,5.53,0,0,1,3.64,2.26c.05.1.15.21.15.31s0,.21,0,.36a1.71,1.71,0,0,1-.31-.15,5.53,5.53,0,0,0-4.11-2.46c-.36-.05-.67-.1-1.13-.15a32.45,32.45,0,0,0,31.35,15.5c-.41-.46-.77-.92-1.18-1.33l.1-.1a.9.9,0,0,0,.21.26,9.81,9.81,0,0,0,7.59,3.08.79.79,0,0,0,.87-.62,9.48,9.48,0,0,0,0-6.62.65.65,0,0,1-.05-.31,9.2,9.2,0,0,1,1.08,3.54,31.64,31.64,0,0,0,9-5.44c.67.72,1.28,1.49,2,2.16a14.41,14.41,0,0,0,13.34,3.54c.36-.05.46-.21.56-.56a14.06,14.06,0,0,0-3.59-13l-.21-.21a7.89,7.89,0,0,0,.87-1A14.34,14.34,0,0,0,237.19,109.31Zm-42.75,1.23c7.34,6.67,6.77,18.22.05,24.12C200,126.7,200,118.59,194.44,110.54Zm-8,13.14a2.31,2.31,0,1,1,2.31-2.31A2.3,2.3,0,0,1,186.49,123.67ZM174.17,96.73a4.07,4.07,0,0,1,2-4c1.13-.72,3-.92,3.64-.41C176.94,92.42,175.25,93.71,174.17,96.73Zm-7.34,7.75a4.18,4.18,0,0,0-1.39,2.21,3,3,0,0,1,3.85-3.08A4.22,4.22,0,0,0,166.83,104.48ZM148.92,40.85a3.74,3.74,0,0,1,.92,2.41,2.41,2.41,0,0,1-.56,1.59,2.94,2.94,0,0,1-2,.87,14.41,14.41,0,0,1-2.36,5.9c-3.39,4.93-10,7.65-16.68,7.65a22.27,22.27,0,0,1-10-2.26C109.41,52.6,107,43.31,106.53,40.9a25.1,25.1,0,0,1,1.18-14.11,4.61,4.61,0,0,1-1.08-2.31c0-.21-.05-.36-.05-.56a5,5,0,0,1,1-2.82,7.41,7.41,0,0,1,1-1.08c-.46-.67-.92-1.33-1.33-2l-.1-.15.21-.1c1-.41,2-.82,2.87-1.23.36-3.34,2.36-6,4.93-6.47a8.18,8.18,0,0,1,1.13-.1,4.71,4.71,0,0,1,3.64,1.49A4.32,4.32,0,0,1,120.8,14a3.52,3.52,0,0,1,1.54,1.28,3.65,3.65,0,0,1,.51,1.8,2.57,2.57,0,0,1-.41,1.44,3,3,0,0,1-1.59,1.23A4.9,4.9,0,0,1,120,20a12.38,12.38,0,0,0-.56,3.59,8.68,8.68,0,0,0,1.18,4.57c1.8,2.93,5.54,4.67,9.34,4.67h0a11.28,11.28,0,0,0,7-2.36,10.93,10.93,0,0,0,3.8-8.57,12.1,12.1,0,0,0-.72-4.21l-.1-.36.36.15c2,.77,8.21,3.49,11,9.9a20.61,20.61,0,0,1,1.59,7.44c0,2.16-.51,4.16-2,5.29A4.44,4.44,0,0,1,148.92,40.85ZM112,17.86v.05a1.44,1.44,0,0,0,1.39,1.33h.05a1.4,1.4,0,0,0,1.33-1.39v-.05a1.44,1.44,0,0,0-1.39-1.33h-.05A1.37,1.37,0,0,0,112,17.86Zm19.55,35-.05-.15a11.78,11.78,0,0,0,5.64-2.77,16,16,0,0,1-6.72,1.54,18.6,18.6,0,0,1-2.82-.26,14.84,14.84,0,0,1-8.36-4.82,16.73,16.73,0,0,1-2.16-2.93,13.33,13.33,0,0,0,6.16,7.85A12.54,12.54,0,0,0,129.32,53a11,11,0,0,0,2.21-.21ZM116.23,10.31a7,7,0,0,0-1.08.1,8,8,0,0,1,1.08-.1Zm-32.54,133c-10.78-7.13-24.38-13.65-27.51-18.47-4-6.21,3.34-7.59,5.8-9.34s4-5.44,5.34-6.77,3.75-3.44,7.8-7.49c2.05-2.05-.82-10.78-2.31-10.88-5.13-.31-7,.21-12.78-.05a21.87,21.87,0,0,0,2-7.8,17.85,17.85,0,0,0-2.62-9.7,29.58,29.58,0,0,1,.05,4.77c-.56,5.64-3.54,10.21-8,12.37l-7.34,1.28h-.05c-8.36-.82-13.19-9.7-12.37-18.06a13.87,13.87,0,0,1,.72-3.28,15.07,15.07,0,0,0-4.21,9.29A19.38,19.38,0,0,0,33.72,93l-2.46.41a23,23,0,0,0-6.72,1.54c-3.13,1.33-8.06,8.47-7.39,8.93s9.13,1.33,11.6.67a20.83,20.83,0,0,0,4.67-2S26.68,113.67,19.35,121a31.57,31.57,0,0,0-8.16,13.09A50.07,50.07,0,0,1,0,101.71V23.5a12.7,12.7,0,0,1,3.75-9.24A12.43,12.43,0,0,1,13,10.42a12.4,12.4,0,0,1,9.19,3.85A12.75,12.75,0,0,1,26,23.5V49.67c8.83-.67,23.45-.1,26.12-.1A50.35,50.35,0,0,1,88.93,64.86a50.26,50.26,0,0,1,15.34,36.9,50.26,50.26,0,0,1-15.34,36.9Q86.39,141.12,83.7,143.28Zm40.9-75.95q1.54.15,3.08.15c.67,0,1.33,0,2-.05a13.17,13.17,0,0,1,10.26,12.78v60.61a12.7,12.7,0,0,1-3.8,9.29,12.36,12.36,0,0,1-9.19,3.8,12.5,12.5,0,0,1-9.24-3.8,12.66,12.66,0,0,1-3.75-9.29V80.16A12.75,12.75,0,0,1,117.72,71,12.36,12.36,0,0,1,124.6,67.33Z"/></g></g></svg>