<svg display="none" xmlns="http://www.w3.org/2000/svg">
    <symbol id="broyler" viewBox="0 0 62.44 65.48">
        <g>
            <path d="M62.22,15.41,58.72,8.56a9.73,9.73,0,0,0-.88-1.4L58.56,5a1.92,1.92,0,1,0-3.65-1.2l-.23.69-.39-.2,0-2.32a1.92,1.92,0,1,0-3.85,0V3.33h-.38l-.84-1.71a1.92,1.92,0,0,0-3.45,1.7l.43.86-.42.2,0,0L44.28,3.35A1.92,1.92,0,1,0,42,6.47l.65.47A37.17,37.17,0,0,1,28,16.45c-5.71,2.1-14.45,3.88-23.67.41A1.92,1.92,0,0,0,1.82,18,28.35,28.35,0,0,0,18.61,54.55a28.56,28.56,0,0,0,3.27,1l4.72,6.1h-.42a1.92,1.92,0,0,0,0,3.85H34.6a1.92,1.92,0,0,0,0-3.85H31.47l-4.15-5.36,1,0A28.52,28.52,0,0,0,55,37.55c.21-.58.4-1.17.57-1.76a18.67,18.67,0,0,0-1.48-14.43L61.32,18a1.92,1.92,0,0,0,.9-2.62ZM51.42,36.24A24.5,24.5,0,0,1,6.1,38.16a24.83,24.83,0,0,1-1.35-3.69,12.49,12.49,0,0,0,1.65.63A1.92,1.92,0,1,0,7.5,31.41a7.21,7.21,0,0,1-3.62-2.29q0-.63,0-1.27a14,14,0,0,0,3.43.7h.17a1.92,1.92,0,0,0,.17-3.84,7.77,7.77,0,0,1-3.41-.92,24.62,24.62,0,0,1,.62-2.69c9.38,2.93,18.69,1.4,26.26-1.76a9.39,9.39,0,0,0,9,7.89A9.38,9.38,0,0,0,52.54,31a16.21,16.21,0,0,1-.63,3.69c-.15.51-.31,1-.49,1.52ZM50.53,18.8a1.92,1.92,0,0,0-.75,2.87,14.7,14.7,0,0,1,2.39,5.21l-1.3.69a5.54,5.54,0,0,1-7.72-2.76L43,24.54a1.92,1.92,0,0,0-2-1.18,5.53,5.53,0,0,1-6.2-5.77A36.43,36.43,0,0,0,46.19,8.73a4.3,4.3,0,0,1,1.34-.92,5.77,5.77,0,0,1,7.76,2.51l2.59,5.07L50.53,18.8Z"/>
            <path d="M50.49,9.23a1.92,1.92,0,1,0,1.36.56A1.94,1.94,0,0,0,50.49,9.23Z"/>
        </g>

    </symbol>


    <symbol id="nesushki" viewBox="0 0 63.7 76.37">
        <g>
            <path d="M14.34,24.86A4.25,4.25,0,0,0,17.83,23,1.52,1.52,0,0,0,18,21.48a1.75,1.75,0,0,0-1.42-1,1.52,1.52,0,0,0-1.4.69,1,1,0,0,1-1.77-.44,1.52,1.52,0,0,0-.92-1.26,1.75,1.75,0,0,0-1.71.2,1.52,1.52,0,0,0-.59,1.44,4.24,4.24,0,0,0,3.18,3.6A4.16,4.16,0,0,0,14.34,24.86Z"/>
            <path d="M63.47,55.57c-.56-3-2.06-5.18-4.12-6.06a5.69,5.69,0,0,0-2.24-.44c-.28,0-.53,0-.8,0a27.86,27.86,0,0,0,2.76-9.75,21.11,21.11,0,0,0,1.51-7.86,1.65,1.65,0,0,0-1.65-1.65H51.16a1.65,1.65,0,1,0,0,3.29h6.06a18,18,0,0,1-17.9,16.33H33.43a8.17,8.17,0,1,1,0-16.33H46.57a1.65,1.65,0,1,0,0-3.29H36.63c-1-1.2-1.7-3.51-2.49-6a55.43,55.43,0,0,0-2-5.59,7.8,7.8,0,0,0,3.54-2.81,4.35,4.35,0,0,0,.54-4.41A4.29,4.29,0,0,0,33.59,9a3.58,3.58,0,0,0-.33-2.21c-.73-1.5-2.75-3-6.24-2.91A3.8,3.8,0,0,0,25.21.8c-1.49-1-3.53-1.07-5.73-.15a12.64,12.64,0,0,0-3.19,2,1.65,1.65,0,1,0,2.11,2.53,9.37,9.37,0,0,1,2.35-1.47c.53-.22,1.85-.68,2.61-.17.39.27.38.43.38.56A5.61,5.61,0,0,1,20.92,7.3a1.65,1.65,0,0,0-.69,2.23,1.69,1.69,0,0,0,2.22.69A10.45,10.45,0,0,0,25.79,7.3c2.73-.44,4.21.33,4.51.93,0,.08.15.31-.33.71a3.28,3.28,0,0,1-.9.51,1.65,1.65,0,0,0-.93,2.14,1.67,1.67,0,0,0,2.14.93,7.06,7.06,0,0,0,1.22-.62c1.18.14,1.65.48,1.74.66s0,.59-.33,1.11a4.35,4.35,0,0,1-2.39,1.69l-.08-.12a9.83,9.83,0,0,0-8.58-4.73,17,17,0,0,0-8,1.85A14.46,14.46,0,0,1,15.23,9a1.65,1.65,0,0,0-.64-2.24,1.65,1.65,0,0,0-2.24.64,18,18,0,0,0-2.21,7.7c-.33.32-.65.67-1,1-1.89,0-5.9.48-7.54,3.45a1.66,1.66,0,0,0-.2.72c0,.18-.17,4.31,2.57,6.55a40.13,40.13,0,0,0-.95,5.81,1.65,1.65,0,0,0,3.28.3,35.51,35.51,0,0,1,1.15-6.4A25.73,25.73,0,0,1,9.2,22.07c2.62-5.24,7.24-8.25,12.67-8.25,2.69,0,4.69,1.25,6.26,3.88a1.31,1.31,0,0,0,.19.34A38.27,38.27,0,0,1,31,24.91a42,42,0,0,0,1.81,5,11.46,11.46,0,0,0,.61,22.9h5.88a22.6,22.6,0,0,0,3.25-.25A21.24,21.24,0,0,0,53.5,47.37a24.86,24.86,0,0,1-2.57,4.25,15.46,15.46,0,0,0-2.36,2.45c-3.76-1.58-7.65,1.51-8.78,2.52a15.12,15.12,0,0,0-1.29,1.31c-1.59-2.78-3.88-4.52-6.3-4.71s-5.16,1.57-7,4.71c-1.44-1.63-4.36-4.3-8-4.23a5.8,5.8,0,0,0-2.06.41,13.9,13.9,0,0,0-5.22-4.25A24.81,24.81,0,0,1,6.18,37.39a1.64,1.64,0,0,0-.52-1.15,1.69,1.69,0,0,0-1.18-.45,1.65,1.65,0,0,0-1.6,1.69A28.29,28.29,0,0,0,5.77,49.13c-3.25.45-5,3.54-5.53,6.44a16,16,0,0,0,1.12,9.08C3.22,69,6.44,71.52,10.2,71.52A8.21,8.21,0,0,0,13,71c1.93,3.28,4.73,5.07,7.93,5.07a8.4,8.4,0,0,0,5.32-1.93,8.16,8.16,0,0,0,5.62,2.19,8.29,8.29,0,0,0,5.62-2.2,8.39,8.39,0,0,0,5.35,1.95c1.87,0,5.34-.67,7.91-5.08a8.21,8.21,0,0,0,2.77.48c3.76,0,7-2.51,8.84-6.87A16,16,0,0,0,63.47,55.57ZM23.64,62c0,.15-.09.28-.1.33a17.17,17.17,0,0,0-.37,4.18l.5,0h0l-.49.15a12.49,12.49,0,0,0,1.12,4.86,5,5,0,0,1-1.43.92,4.57,4.57,0,0,1-3.69,0A8.65,8.65,0,0,1,15,67.6a13.94,13.94,0,0,1-.88-6.14c.16-1.38.69-3.77,2.38-4.36a3.31,3.31,0,0,1,1.09-.18c2.75,0,5.33,3.28,5.9,4l.35.5C23.77,61.61,23.68,61.87,23.64,62Zm-18-9.45a2.48,2.48,0,0,1,1-.19,5.54,5.54,0,0,1,2.49.76,11.39,11.39,0,0,1,3.46,3c-2.52,3.36-2.19,8.22-1,11.87a4.91,4.91,0,0,1-1.41.21c-2.41,0-4.47-1.73-5.81-4.87a12.64,12.64,0,0,1-.92-7.18C3.82,54.36,4.65,53,5.65,52.54Zm7.43,3.71h0l0,0h0Zm47.37,1.11a16,16,0,0,1-1.13,6c-1.34,3.14-3.4,4.87-5.81,4.87A4.93,4.93,0,0,1,52.1,68,16.34,16.34,0,0,0,53,62.87a11.21,11.21,0,0,0-1.87-6.72c1.76-2.29,4.63-4.59,6.93-3.61C60,53.36,60.41,55.61,60.45,57.36ZM40.06,69.71a12.51,12.51,0,0,0,.3-1.38A1.65,1.65,0,0,0,39,66.45a1.67,1.67,0,0,0-1.21.29,1.63,1.63,0,0,0-.67,1.08,7.57,7.57,0,0,1-1.09,3,5,5,0,0,1-8.34,0,8.81,8.81,0,0,1-1.22-4.87c0-2.15.77-6.32,2.85-8.36a3.52,3.52,0,0,1,2.51-1.1h.06c2.8.05,4.6,4.15,5.13,6.89.24,1.23.84,1.84,1.78,1.77l.17,0a1.65,1.65,0,0,0,1.37-1.89,16.8,16.8,0,0,0-.39-1.83,11.6,11.6,0,0,1,3.62-3.53c1.05-.62,3-1.51,4.39-.35,2.78,2.44,1.74,7.66.8,10.08a8.53,8.53,0,0,1-4.22,4.86,4.57,4.57,0,0,1-3.69,0,5,5,0,0,1-1.43-.92A10.87,10.87,0,0,0,40.06,69.71ZM6.66,19.82q-.39.72-.76,1.5c-.25.55-.5,1.13-.72,1.72a6.68,6.68,0,0,1-.45-2.14A3.94,3.94,0,0,1,6.66,19.82Z"/>
        </g>
    </symbol>

    <symbol id="krs" viewBox="0 0 93.4 72.74">
        <g>
            <path d="M93,9.09a1.81,1.81,0,0,0-1.4-.73h0a3,3,0,0,1-1.7-.61,7.08,7.08,0,0,0-5.26-1.29,9,9,0,0,0,1.24-4.56V1.81a1.81,1.81,0,0,0-3.62,0v.09a5.38,5.38,0,0,1-2.38,4.46,10.26,10.26,0,0,0-8.72,0,5.38,5.38,0,0,1-2.38-4.46V1.81a1.81,1.81,0,0,0-3.62,0v.09a9,9,0,0,0,1.24,4.56A7.08,7.08,0,0,0,61.2,7.75a3,3,0,0,1-1.7.61h0a1.81,1.81,0,0,0-1.7,2.27,8.69,8.69,0,0,0,2,3.81,43,43,0,0,1-7.73.7H15.12A15.13,15.13,0,0,0,0,30.26V44.59a1.81,1.81,0,0,0,3.62,0V30.26A11.52,11.52,0,0,1,12.56,19c-.37.31-.73.64-1.07,1A16.53,16.53,0,0,0,6.66,30.54a1.77,1.77,0,0,0,0,.21c0,.35,0,.71,0,1.07v3.32a17.91,17.91,0,0,0,9.32,15.69l1.71,5.82V69.51a3.23,3.23,0,0,0,3.22,3.22H34.92a3.29,3.29,0,0,0,2.9-4.85l-1.12-2.09v-11H51.54A9.59,9.59,0,0,0,53,57.13V69.51a3.23,3.23,0,0,0,3.22,3.22H69.12A3.29,3.29,0,0,0,72,67.89l-1.12-2.09v-9A18.76,18.76,0,0,0,74.11,52a19.26,19.26,0,0,0,9.25-16,7.05,7.05,0,0,0,4.35-6.51v-.83a7,7,0,0,0-1.9-4.81,1.8,1.8,0,0,0,.05-.43V16.56h.39a7.17,7.17,0,0,0,3.46-.85,7.7,7.7,0,0,0,3.63-5.09A1.81,1.81,0,0,0,93,9.09Zm-10.8,6.58v6.1a7,7,0,0,0-1.58-.18H70.47a7,7,0,0,0-1.58.18v-6.1a6.67,6.67,0,0,1,13.35,0Zm-18.86-5a4.06,4.06,0,0,1,3.47-.42,10.21,10.21,0,0,0-1.19,2.68,4,4,0,0,1-2.5-.34A3.22,3.22,0,0,1,62,11.43,6.68,6.68,0,0,0,63.38,10.63ZM42.23,20.07a1.32,1.32,0,0,1,1.27-1.31h8.11a4.89,4.89,0,0,1-.08,9.79H37.15a1.77,1.77,0,1,1,0-3.54h.15A4.94,4.94,0,0,0,42.23,20.07Zm-30,22.29a14.29,14.29,0,0,1-2-7.23V32.58H24.61a1.77,1.77,0,0,1,0,3.54h-.15a4.94,4.94,0,0,0-4.93,4.93,1.32,1.32,0,0,1-1.31,1.31h-6ZM33.31,67.11l1.08,2H30.71a3.31,3.31,0,0,0-.38-1.23l-1.12-2.09v-9a18.87,18.87,0,0,0,1.56-1.92h2.32V66.26A1.81,1.81,0,0,0,33.31,67.11Zm34.2,0,1.08,2H64.73a3.28,3.28,0,0,0-.53-1.5l-.67-1V56.77a19,19,0,0,0,1.6-2,19.26,19.26,0,0,0,3.06-.41l-.37.39A1.81,1.81,0,0,0,67.29,56V66.26A1.79,1.79,0,0,0,67.5,67.11Zm1-23.15V41.88a1.81,1.81,0,1,0-3.62,0V44a15.18,15.18,0,0,1-2.16,7.85,1.81,1.81,0,0,0-.3.47,15.41,15.41,0,0,1-2,2.48A1.81,1.81,0,0,0,59.92,56V67.16a1.81,1.81,0,0,0,.3,1l.64,1h-4.2V56.41a1.81,1.81,0,0,0-.56-1.31,6,6,0,0,1-1.85-4.3V47.24a1.81,1.81,0,1,0-3.62,0v3.55c0,.15,0,.3,0,.44H32.78A18.86,18.86,0,0,0,34.22,44V41.88a1.81,1.81,0,1,0-3.62,0V44a15.17,15.17,0,0,1-4.47,10.8A1.81,1.81,0,0,0,25.6,56V66.26a1.81,1.81,0,0,0,.21.85l1.08,2H21.26V56.4a1.81,1.81,0,0,0-.07-.51l-2-6.81A1.83,1.83,0,0,0,18.25,48a14.09,14.09,0,0,1-3-2h3a4.94,4.94,0,0,0,4.93-4.93,1.32,1.32,0,0,1,1.31-1.31h.15a5.39,5.39,0,0,0,0-10.77H10.54a13,13,0,0,1,12.73-10.2H38.79a4.9,4.9,0,0,0-.18,1.31,1.32,1.32,0,0,1-1.31,1.31h-.15a5.39,5.39,0,0,0,0,10.77H51.53a8.5,8.5,0,0,0,6.65-13.81,46.49,46.49,0,0,0,7.1-1.51v6.56a1.8,1.8,0,0,0,.05.43,7,7,0,0,0-1.9,4.81v.83a7.05,7.05,0,0,0,7,7h9.25A15.66,15.66,0,0,1,67.24,50.88,18.87,18.87,0,0,0,68.54,44ZM84.09,29.47a3.43,3.43,0,0,1-3.43,3.43H70.47A3.43,3.43,0,0,1,67,29.47v-.83a3.43,3.43,0,0,1,3.43-3.43H80.66a3.43,3.43,0,0,1,3.43,3.43ZM88,12.53a4,4,0,0,1-2.52.35,10.28,10.28,0,0,0-1.19-2.68,4.06,4.06,0,0,1,3.47.42,6.68,6.68,0,0,0,1.37.81A3.24,3.24,0,0,1,88,12.53Z"/><path d="M69.7,14.76a1.81,1.81,0,0,0,1.81,1.81h0a1.81,1.81,0,0,0,0-3.62h0A1.81,1.81,0,0,0,69.7,14.76Z"/><path d="M79,16.57h0a1.81,1.81,0,0,0,0-3.62h0a1.81,1.81,0,1,0,0,3.62Z"/><path d="M71.81,27.44h0a1.81,1.81,0,1,0,0,3.62h0a1.81,1.81,0,0,0,0-3.62Z"/><path d="M79.35,27.44h0a1.81,1.81,0,0,0,0,3.62h0a1.81,1.81,0,0,0,0-3.62Z"/><path d="M1.81,50a1.81,1.81,0,1,0,1.28.53A1.81,1.81,0,0,0,1.81,50Z"/>
        </g>
    </symbol>

    <symbol id="fish" viewBox="0 0 78 49.36">
        <g>
            <path d="M65.38,24.42a1.65,1.65,0,0,0-1.65,1.65v.74a1.65,1.65,0,1,0,3.29,0v-.74A1.65,1.65,0,0,0,65.38,24.42Z"/><path d="M72.69,17.62a39.06,39.06,0,0,0-12.88-7.37h0a42.47,42.47,0,0,0-6.91-1.78A25.81,25.81,0,0,0,39,.12a4.42,4.42,0,0,0-5.41,4.31V10.7A54.66,54.66,0,0,0,17.17,22.56a14.92,14.92,0,0,0-3.82-7.69C9,10.48,1.89,10.67,1.59,10.68A1.65,1.65,0,0,0,0,12.27c0,.3-.19,7.36,4.2,11.75a12.44,12.44,0,0,0,3.61,2.47A12.77,12.77,0,0,0,4.2,29C-.19,33.38,0,40.44,0,40.74a1.65,1.65,0,0,0,1.59,1.59h.26c1.35,0,7.52-.23,11.49-4.2a15,15,0,0,0,3.83-7.82,59.42,59.42,0,0,0,10.88,8.88v5.75a4.43,4.43,0,0,0,4.41,4.43,4.47,4.47,0,0,0,1.28-.19,25,25,0,0,0,8.39-4.5,27.62,27.62,0,0,0,4,.3,41.37,41.37,0,0,0,13.37-2.25h0C69.7,39.24,78,31.94,78,26.43,78,23.8,76.12,20.67,72.69,17.62ZM6.53,21.69C4.28,19.44,3.59,16.06,3.38,14c2,.2,5.37.89,7.64,3.15s2.94,5.57,3.15,7.53C12.19,24.57,8.79,23.95,6.53,21.69ZM11,35.8c-2.25,2.25-5.63,2.94-7.64,3.15.21-2,.9-5.39,3.15-7.64s5.65-2.94,7.64-3.15C14,30.17,13.28,33.54,11,35.8ZM36.92,4.43a1.13,1.13,0,0,1,.43-.89,1.09,1.09,0,0,1,.94-.21,23,23,0,0,1,9.33,4.6l-1.49,0a29.45,29.45,0,0,0-9.21,1.54ZM32.8,46a1.13,1.13,0,0,1-1-.18,1.11,1.11,0,0,1-.45-.91V41.07a37.61,37.61,0,0,0,6.49,2.65A20.74,20.74,0,0,1,32.8,46Zm13.33-4.34a24.59,24.59,0,0,1-4.2-.37,33.6,33.6,0,0,1-11.38-4.45A56.81,56.81,0,0,1,18.07,26.43c2.34-2.62,9.11-9.58,17.82-13.11h0a27.22,27.22,0,0,1,10.2-2.12,37.28,37.28,0,0,1,5.6.43,38.71,38.71,0,0,1,4.25.9,21.5,21.5,0,0,0-5.65,14.3,21.14,21.14,0,0,0,5.45,13.61A37.69,37.69,0,0,1,46.13,41.68ZM59.31,39.3a17.66,17.66,0,0,1-5.69-12.5,18,18,0,0,1,5.92-13.15C69,17.17,74.71,23.39,74.71,26.43S68.87,35.79,59.31,39.3Z"/><path d="M48.34,15.37a1.65,1.65,0,0,0-2.33.06c-.16.17-.31.34-.46.52a1.65,1.65,0,1,0,2.52,2.12l.33-.37A1.65,1.65,0,0,0,48.34,15.37Z"/><path d="M48.15,35.5a13.49,13.49,0,0,1-2.88-8.76,15.53,15.53,0,0,1,1-5.52A1.65,1.65,0,0,0,43.18,20a18.85,18.85,0,0,0-1.2,6.7,16.8,16.8,0,0,0,3.68,10.92,1.65,1.65,0,1,0,2.48-2.16Z"/>
        </g>

    </symbol>


     <symbol id="car" viewBox="0 0 78.6 51">
        <g>
            <path d="M76.36,23.84,63.81,11.26a1.5,1.5,0,0,0-1.06-.44H52.81V1.5A1.5,1.5,0,0,0,51.31,0H21.6a1.5,1.5,0,0,0,0,3H49.81V39.6H33.69A7.49,7.49,0,0,0,21.29,39a7.49,7.49,0,0,0-12.4.59H3V3H9.6a1.5,1.5,0,0,0,0-3H1.5A1.5,1.5,0,0,0,0,1.5V41.1a1.5,1.5,0,0,0,1.5,1.5H7.84A7.44,7.44,0,0,0,9.29,48H1.5a1.5,1.5,0,0,0,0,3H27.29a7.48,7.48,0,0,0,7.44-8.4H56.46a7.61,7.61,0,0,0-.06.9A7.46,7.46,0,0,0,57.9,48H45.3a1.5,1.5,0,0,0,0,3H63.9a7.51,7.51,0,0,0,7.5-7.5,7.61,7.61,0,0,0-.06-.9h4a1.5,1.5,0,0,0,1.5-1.5V24.9A1.5,1.5,0,0,0,76.36,23.84ZM10.79,43.5a4.5,4.5,0,1,1,4.5,4.5A4.5,4.5,0,0,1,10.79,43.5ZM21.29,48h0Zm6,0a4.5,4.5,0,1,1,4.5-4.5A4.5,4.5,0,0,1,27.29,48ZM73.8,28.8H63.62l6.73-6.73,3.45,3.45ZM58.5,27.3V24.22l7-7,2.73,2.73L59.48,28.7A1.5,1.5,0,0,1,58.5,27.3Zm4.89-12.21L58.5,20V13.82h3.63ZM63.9,48a4.5,4.5,0,1,1,4.5-4.5A4.5,4.5,0,0,1,63.9,48Zm6.4-8.4a7.5,7.5,0,0,0-12.81,0H52.81V13.82H55.5V27.3A4.5,4.5,0,0,0,60,31.8H73.8v7.8Z"/><path d="M39.3,48a1.5,1.5,0,1,0,1.06.44A1.51,1.51,0,0,0,39.3,48Z"/><path d="M15.6,3a1.5,1.5,0,0,0,1.5-1.5,1.5,1.5,0,1,0-2.56,1.06A1.51,1.51,0,0,0,15.6,3Z"/>

        </g>
     </symbol>

     <symbol id="recepture" viewBox="0 0 61 61">
        <g>
            <path d="M34.59,51.47l-13-20.08V15.25A1.27,1.27,0,0,0,20.33,14H14a1.27,1.27,0,0,0-1.27,1.27V31.43L.87,51.56A6.27,6.27,0,0,0,6.27,61H29.41a6.18,6.18,0,0,0,5.19-9.53Zm-5.19,7H6.27A3.72,3.72,0,0,1,3,52.85l12-20.43a1.27,1.27,0,0,0,.18-.64V16.52h3.81V31.77a1.27,1.27,0,0,0,.2.69L32.46,52.85a3.63,3.63,0,0,1-3.05,5.61Z"/><path d="M18.31,36.95l-2.19-1.29L5.32,54a1.27,1.27,0,0,0,1.1,1.92h8.83V53.38H8.64Z"/><path d="M57.93,29.23H38.13A5.08,5.08,0,0,0,33,34.31V54.65A6.36,6.36,0,0,0,39.4,61H50.83a6.36,6.36,0,0,0,6.35-6.35V37.38l2.92-2.91a3.07,3.07,0,0,0-2.17-5.24Zm.37,3.44L55,36a1.27,1.27,0,0,0-.37.9V54.65a3.81,3.81,0,0,1-3.81,3.81H39.4a3.81,3.81,0,0,1-3.81-3.81V34.31a2.54,2.54,0,0,1,2.54-2.54H57.93a.53.53,0,0,1,.37.9Z"/><path d="M49.56,36.85V53.38H45.75v2.54h5.08a1.27,1.27,0,0,0,1.27-1.27V36.85Z"/><path d="M35.58,18.41V1.27A1.27,1.27,0,0,0,34.31,0h-8.9a1.27,1.27,0,0,0-1.27,1.27v17.5a21.57,21.57,0,0,0-4.45,1.94L21,22.91A19,19,0,0,1,25.73,21a1.27,1.27,0,0,0,1-1.23V2.54H33V19.43a1.27,1.27,0,0,0,1,1.25,19.08,19.08,0,0,1,11.3,6.8l2-1.59A21.64,21.64,0,0,0,35.58,18.41Z"/><path d="M54,17.79a4.45,4.45,0,1,0,4.45,4.45A4.45,4.45,0,0,0,54,17.79Zm0,6.35a1.91,1.91,0,1,1,1.91-1.91A1.91,1.91,0,0,1,54,24.15Z"/><path d="M49.56,8.9a3.81,3.81,0,1,0,3.81,3.81A3.81,3.81,0,0,0,49.56,8.9Zm0,5.08a1.27,1.27,0,1,1,1.27-1.27A1.27,1.27,0,0,1,49.56,14Z"/><path d="M4.45,10.17A4.45,4.45,0,1,0,8.9,14.61,4.45,4.45,0,0,0,4.45,10.17Zm0,6.35a1.91,1.91,0,1,1,1.91-1.91A1.91,1.91,0,0,1,4.45,16.52Z"/><path d="M10.17,1.27A3.81,3.81,0,1,0,14,5.08,3.81,3.81,0,0,0,10.17,1.27Zm0,5.08a1.27,1.27,0,1,1,1.27-1.27A1.27,1.27,0,0,1,10.17,6.35Z"/><rect x="38.13" y="36.85" width="3.81" height="2.54"/><rect x="38.13" y="41.94" width="2.54" height="2.54"/><rect x="38.13" y="47.02" width="3.81" height="2.54"/><rect x="38.13" y="52.1" width="2.54" height="2.54"/><rect x="2.54" y="22.88" width="2.54" height="2.54"/><rect x="6.35" y="29.23" width="2.54" height="2.54"/><rect x="27.96" y="34.31" width="2.54" height="2.54"/><rect x="25.42" y="29.23" width="2.54" height="2.54"/><rect x="24.15" y="24.15" width="2.54" height="2.54"/><rect x="25.42" y="52.1" width="2.54" height="2.54"/><rect x="21.6" y="47.02" width="2.54" height="2.54"/>

        </g>
     </symbol>

     <symbol id="program" viewBox="0 0 62 62">
        <g>
            <path d="M44.06,32a3,3,0,0,1,1.66.5l7,4.66a5,5,0,0,0,2.77.84H62V36H55.49a3,3,0,0,1-1.67-.5L51,33.62V0H13V6H0V62H38V56H51V47.59l.19,0,4.65-1.16A13,13,0,0,1,59,46h3V44H59a15,15,0,0,0-3.64.45l-4.65,1.16a13.08,13.08,0,0,1-7.27-.28l-1.69-.56A15,15,0,0,0,37,44H28.27a3,3,0,0,1,3-3h11a3,3,0,0,0,.35-6l.82-3ZM42.8,47.23a15,15,0,0,0,4.75.77c.49,0,1,0,1.45-.09V54H38V50.73a3.61,3.61,0,0,0,.77-1.43l.82-3a12.91,12.91,0,0,1,1.53.4ZM37.58,46l-.75,2.76A1.65,1.65,0,0,1,35.25,50h-.32a1.65,1.65,0,0,1-1.59-2.08L33.85,46H37Zm-5.81,0-.38,1.4a3.62,3.62,0,0,0,1.72,4.1l-.31,1.25,1.94.49L35.06,52h.19a3.63,3.63,0,0,0,.75-.09V60H2V8H15V2H49V32.28l-2.16-1.44A5,5,0,0,0,44.06,30H44l4.16-15.4A3.65,3.65,0,0,0,44.63,10H44.3a3.66,3.66,0,0,0-3.52,2.7L38,23V6H17V8H36V30H33.93a4.94,4.94,0,0,0-3,1H21v2h7.86l-2,2H21v2h3.86l-1.67,1.67a3.1,3.1,0,0,0,3.1,5.18s0,.1,0,.15a2,2,0,0,0,2,2Zm7.7-7H35.74L40,23.38l3.43,1.14Zm-7.67-6.12A3,3,0,0,1,33.93,32h1.63l-.82,3a5,5,0,0,0-3.35,1.45l-5.21,5.21a1.12,1.12,0,0,1-1.92-.79,1.11,1.11,0,0,1,.33-.79Zm1,5a3,3,0,0,1,1.37-.77L33.67,39h-2Zm13.41-23.8L45,18.61l-3.43-1.14,1.15-4.25A1.65,1.65,0,0,1,44.3,12h.32a1.65,1.65,0,0,1,1.59,2.08ZM41,19.4l3.43,1.14-.55,2-3.43-1.14ZM42.27,37a1,1,0,0,1,0,2h-.72l.54-2Z"/><path d="M30,10H4V20H30Zm-2,8H6V12H28Z"/><path d="M8,14h2v2H8Z"/><path d="M12,14h2v2H12Z"/><path d="M16,14h2v2H16Z"/><path d="M20,14h2v2H20Z"/><path d="M24,14h2v2H24Z"/><path d="M16,32H14v4H6V28h6V26H4V38H16Z"/><path d="M19.29,22.29,10,31.59,8.71,30.29,7.29,31.71,10,34.41,20.71,23.71Z"/><path d="M14,53H6V45h6V43H4V55H16V49H14Z"/><path d="M8.71,47.29,7.29,48.71,10,51.41,20.71,40.71l-1.41-1.41L10,48.59Z"/><path d="M32,55h2v2H32Z"/><path d="M19,55H30v2H19Z"/><path d="M21,27H34v2H21Z"/>

        </g>
     </symbol>

     <symbol id="call" viewBox="0 0 56.6 64.99">
        <g>
            <circle cx="22.01" cy="24.11" r="1.05"/><circle cx="34.59" cy="24.11" r="1.05"/>
            <path d="M50.6,51.13A5.2,5.2,0,0,0,51,43.67a5,5,0,0,0,.31-1.74,5.25,5.25,0,0,0-2.22-4.27,4,4,0,0,0,.12-1,4.19,4.19,0,0,0-2.56-3.86,1.09,1.09,0,0,1-.59-1V18.29A18,18,0,0,0,29.16,0a17.82,17.82,0,0,0-18.68,17.8V20.5a4.18,4.18,0,0,0-2.1,3.61v2.1a4.18,4.18,0,0,0,2.1,3.61v2a1.09,1.09,0,0,1-.59,1,4.19,4.19,0,0,0-2.56,3.86,4,4,0,0,0,.12,1,5.25,5.25,0,0,0-2.22,4.27,5,5,0,0,0,.31,1.74A5.2,5.2,0,0,0,6,51.13,16.59,16.59,0,0,0,0,63.94v1H56.6v-1A16.59,16.59,0,0,0,50.6,51.13Zm-38-33.31A15.72,15.72,0,0,1,29.06,2.12,16,16,0,0,1,44,18.29V31.81a3.16,3.16,0,0,0,1.86,3,2.09,2.09,0,0,1,1.28,1.93,2.06,2.06,0,0,1-.24,1l-.5,1,1,.46a3.15,3.15,0,0,1,1.84,2.85,3.11,3.11,0,0,1-.4,1.49l-.42.77.68.55a3.12,3.12,0,0,1-.31,5.11,16.82,16.82,0,0,0-2.57-1.33L35.5,44.12a3.13,3.13,0,0,1-2-2.91v-.75a19.41,19.41,0,0,0,8.39-16V21a3.15,3.15,0,0,0-3.14-3.14h-.18a9.77,9.77,0,0,1-7.9-4,3,3,0,0,0-4.82,0,9.77,9.77,0,0,1-7.9,4h-.18a3.14,3.14,0,0,0-3,2.1H12.58ZM39.76,53.1l-3.2,3.2,1.88,6.59H32.68l2.75-16.53,3.43,1.4Zm-22-5.33,3.43-1.4,2.76,16.53H18.16L20,56.3l-3.2-3.2Zm5.52-12.13a3.14,3.14,0,0,0,3,2.1H30.4a3.14,3.14,0,1,0,0-6.29H26.2a3.14,3.14,0,0,0-3,2.1H19.33a17.32,17.32,0,0,1-2.56-9.07V21a1,1,0,0,1,1-1H18A11.87,11.87,0,0,0,27.59,15,1,1,0,0,1,29,15a11.88,11.88,0,0,0,9.6,4.9h.18a1,1,0,0,1,1,1v3.51A17.32,17.32,0,0,1,28.3,40.82a17.31,17.31,0,0,1-7.46-5.18Zm1.9-1a1,1,0,0,1,1-1H30.4a1,1,0,1,1,0,2.1H26.2A1,1,0,0,1,25.16,34.59Zm0,7.12A19.48,19.48,0,0,0,28,42.92l.33.11.33-.11a19.59,19.59,0,0,0,2.85-1.21,5.2,5.2,0,0,0,2,3.63l-1.35,8.11H24.47l-1.35-8.11a5.2,5.2,0,0,0,2-3.63Zm-.3,13.84h7l-1.22,7.34H26ZM10.48,24.11a2.1,2.1,0,0,1,2.1-2.1h2.1v2.46a19.49,19.49,0,0,0,.39,3.82H12.58a2.1,2.1,0,0,1-2.1-2.1ZM15.6,30.4a19.31,19.31,0,0,0,1.32,3.14h-1.2a3.15,3.15,0,0,1-3.14-3.14ZM6.29,47.17a3.12,3.12,0,0,1,1.18-2.43l.68-.55-.42-.77a3.11,3.11,0,0,1-.4-1.49,3.15,3.15,0,0,1,1.84-2.85l1-.46-.5-1a2,2,0,0,1-.25-1,2.1,2.1,0,0,1,1.28-1.93,2.93,2.93,0,0,0,1.13-.86,5.21,5.21,0,0,0,3.88,1.74H18.2a19.39,19.39,0,0,0,4.86,4.82v.75a3.13,3.13,0,0,1-2,2.91l-10.75,4.4a16.77,16.77,0,0,0-2.57,1.33,3.13,3.13,0,0,1-1.5-2.68Zm4.86,3.29,4.31-1.76-.85,5.12,3.09,3.09-1.71,6h-3.4V56.6h-2.1v6.29H2.13A14.51,14.51,0,0,1,11.15,50.46Zm35,12.43V56.6H44v6.29h-3.4l-1.71-6L42,53.82l-.85-5.12,4.31,1.76a14.51,14.51,0,0,1,9,12.43Z"/><path d="M39.18,14l2-.7a13.64,13.64,0,0,0-1-2.27l-1.81,1.05A11.68,11.68,0,0,1,39.18,14Z"/><path d="M36.95,10.2l1.57-1.39A13.63,13.63,0,0,0,28.3,4.19v2.1A11.53,11.53,0,0,1,36.95,10.2Z"/>

        </g>
     </symbol>

     <symbol id="vaccine" viewBox="0 0 61.86 69.19">
        <g>
            <path d="M59.84,46.13a2,2,0,0,0,2-2V38.92a2,2,0,0,0-2-2H48V33.45h1.15A3.46,3.46,0,0,0,52.63,30V23.07a3.46,3.46,0,0,0-3.46-3.46H31.58l1.36-2.75a1.15,1.15,0,0,0-.52-1.54l-3.1-1.54,2.56-5.16,2.07,1A3.46,3.46,0,1,0,37,3.45L30.84.37a3.46,3.46,0,0,0-3.11,6.18l0,0,2.07,1-2.56,5.16-3.1-1.54a1.15,1.15,0,0,0-1.55.52h0L7,43.26a2.89,2.89,0,0,0,.81,3.56L6.24,50a3.45,3.45,0,0,0,.62,3.95L.12,67.53a1.15,1.15,0,0,0,2.07,1L8.92,54.94l.41,0A3.47,3.47,0,0,0,12.44,53L14,49.89a2.85,2.85,0,0,0,.74.1,2.89,2.89,0,0,0,2.58-1.6l8.19-16.53a3.46,3.46,0,0,0,2.91,1.59h1.15V37A5.78,5.78,0,0,0,25,42.67V63.43a5.77,5.77,0,0,0,5.77,5.77H46.87a5.78,5.78,0,0,0,1.3-.15,3.45,3.45,0,0,0,1,.15H58.4a3.46,3.46,0,0,0,3.46-3.46V51.9a3.46,3.46,0,0,0-2.31-3.26v-2.5ZM28.79,4.5a1.15,1.15,0,0,1,1-2.07L36,5.51a1.15,1.15,0,0,1-1,2.08l0,0ZM28.3,15.84l2.06,1-1.68,3.39L27.35,23l-2.07-1Zm-4.13-2.05,2.07,1-3,6.09-2.06-1ZM10.37,52A1.15,1.15,0,0,1,8.3,51l1.54-3.1,2.07,1ZM23.19,31.35,20.1,29.82l-1,2.07,3.09,1.53-1,2.07-3.09-1.53L17,36l3.09,1.53-1,2.07L16,38.08l-1,2.07,3.09,1.54-1,2.07L14,42.21l-1,2.07L16,45.81l-.77,1.55a.58.58,0,0,1-.77.26L9.32,45.06a.58.58,0,0,1-.26-.77l9-18.08,6.2,3.08Zm3-6.07-1,1.94-6.19-3.07,1-2,.12-.24L26.32,25Zm2.22,5.87A1.15,1.15,0,0,1,27.27,30V28.34l1-2.06,2.17-4.37H49.17a1.15,1.15,0,0,1,1.15,1.15v1.15H43.41a1.15,1.15,0,0,0,0,2.31h6.92V30a1.15,1.15,0,0,1-1.15,1.15ZM27.27,42.67a3.46,3.46,0,0,1,3.46-3.46,1.15,1.15,0,0,0,1.15-1.15V33.45H45.71V43.82H27.27Zm3.46,24.21a3.46,3.46,0,0,1-3.46-3.46V62.27H45.71v3.46a3.44,3.44,0,0,0,.2,1.15Zm15-15V60H27.27V46.13H48v2.5A3.46,3.46,0,0,0,45.71,51.9ZM59.55,65.73a1.15,1.15,0,0,1-1.15,1.15H49.17A1.15,1.15,0,0,1,48,65.73V64.58H59.55Zm0-8.07H57.24a1.15,1.15,0,0,0,0,2.31h2.31v2.31H48V55.35H59.55Zm0-4.61H48V51.9a1.15,1.15,0,0,1,1.15-1.15H58.4a1.15,1.15,0,0,1,1.15,1.15Zm-9.22-4.61V46.13h6.92v2.31ZM48,43.82V39.21H59.55v4.61Z"/><path d="M40.53,54.2H37.07a1.73,1.73,0,1,0,0,3.46h3.46a1.73,1.73,0,0,0,0-3.46Z"/><path d="M38.8,51.9a1.15,1.15,0,0,0,1.15-1.15V49.59a1.15,1.15,0,0,0-2.31,0v1.15A1.15,1.15,0,0,0,38.8,51.9Z"/><path d="M36.49,51.9V50.74a1.15,1.15,0,0,0-2.31,0V51.9a1.15,1.15,0,0,0,2.31,0Z"/><path d="M42.25,49.59a1.15,1.15,0,0,0-1.15,1.15V51.9a1.15,1.15,0,1,0,2.31,0V50.74A1.15,1.15,0,0,0,42.25,49.59Z"/><path d="M51.48,60h1.15a1.15,1.15,0,1,0,0-2.31H51.48a1.15,1.15,0,0,0,0,2.31Z"/><path d="M36.49,26.53H38.8a1.15,1.15,0,0,0,0-2.31H36.49a1.15,1.15,0,1,0,0,2.31Z"/>

        </g>
     </symbol>

</svg>
